<?xml version="1.0" encoding="utf-8"?>
<!-- Generator: Adobe Illustrator 15.0.0, SVG Export Plug-In . SVG Version: 6.00 Build 0)  -->
<!DOCTYPE svg PUBLIC "-//W3C//DTD SVG 1.1//EN" "http://www.w3.org/Graphics/SVG/1.1/DTD/svg11.dtd">
<svg version="1.1"
	 id="svg2" sodipodi:docname="cog.svg" inkscape:output_extension="org.inkscape.output.svg.inkscape" inkscape:version="0.48.3.1 r9886" sodipodi:version="0.32" xmlns:inkscape="http://www.inkscape.org/namespaces/inkscape" xmlns:sodipodi="http://sodipodi.sourceforge.net/DTD/sodipodi-0.dtd" xmlns:rdf="http://www.w3.org/1999/02/22-rdf-syntax-ns#" xmlns:svg="http://www.w3.org/2000/svg" xmlns:cc="http://creativecommons.org/ns#" xmlns:dc="http://purl.org/dc/elements/1.1/"
	 xmlns="http://www.w3.org/2000/svg" xmlns:xlink="http://www.w3.org/1999/xlink" x="0px" y="0px" width="512px" height="512px"
	 viewBox="0 0 512 512" enable-background="new 0 0 512 512" xml:space="preserve">
<sodipodi:namedview  pagecolor="#ffffff" bordercolor="#666666" id="base" inkscape:cx="305.57669" fit-margin-right="0" borderopacity="1.0" inkscape:pageopacity="0.0" inkscape:pageshadow="2" inkscape:zoom="7.2407734" inkscape:cy="473.48806" inkscape:document-units="px" inkscape:current-layer="layer1" inkscape:window-width="1920" inkscape:window-height="1025" inkscape:window-x="0" inkscape:window-y="27" showgrid="false" inkscape:window-maximized="1" fit-margin-top="0" fit-margin-left="0" fit-margin-bottom="0">
	</sodipodi:namedview>
<g id="layer1" transform="translate(-374.21785,-62.236374)" inkscape:label="Layer 1" inkscape:groupmode="layer">
	
		<path id="path2987" inkscape:connector-curvature="0" sodipodi:nodetypes="cccccccccccccccccccccccccccccccccsssss" fill="#0099CC" d="
		M590.218,62.236l-7.781,77.25c-15.899,4.238-30.965,10.5-44.875,18.562l-60.094-49.125l-56.562,56.562l49.125,60.125
		c-8.062,13.914-14.358,28.971-18.594,44.875l-77.219,7.75v80l77.25,7.781c4.236,15.891,10.506,30.94,18.562,44.844l-49.125,60.125
		l56.562,56.562l60.125-49.125c13.903,8.057,28.953,14.327,44.844,18.562l7.781,77.25h80l7.75-77.219
		c15.904-4.236,30.961-10.531,44.875-18.594l60.125,49.125l56.562-56.562l-49.125-60.094c8.062-13.91,14.324-28.976,18.562-44.875
		l77.25-7.781v-80l-77.219-7.75c-4.238-15.913-10.524-30.986-18.594-44.906l49.125-60.094l-56.562-56.562l-60.094,49.125
		c-13.921-8.069-28.993-14.355-44.906-18.594l-7.75-77.219H590.218z M630.218,244.236c40.869,0,74,33.131,74,74s-33.131,74-74,74
		s-74-33.131-74-74S589.349,244.236,630.218,244.236z"/>
</g>
</svg>
