<?xml version="1.0" encoding="utf-8"?>
<!-- Generator: Adobe Illustrator 15.0.0, SVG Export Plug-In . SVG Version: 6.00 Build 0)  -->
<!DOCTYPE svg PUBLIC "-//W3C//DTD SVG 1.1//EN" "http://www.w3.org/Graphics/SVG/1.1/DTD/svg11.dtd">
<svg version="1.1" id="Layer_1" xmlns="http://www.w3.org/2000/svg" xmlns:xlink="http://www.w3.org/1999/xlink" x="0px" y="0px"
	 width="240px" height="50px" viewBox="0 0 240 50" enable-background="new 0 0 240 50" xml:space="preserve">
<g>
	<g>
		<polygon fill="#85BD47" points="5.804,16.388 10.971,16.388 10.971,24.45 17.924,16.388 24.041,16.388 16.829,23.931 25.07,35.33 
			18.771,35.33 13.46,27.451 10.971,30.091 10.971,35.33 5.804,35.33 		"/>
		<path fill="#85BD47" d="M32.486,35.803c-0.909,0-1.75-0.109-2.529-0.33c-0.791-0.219-1.475-0.561-2.061-1.025
			c-0.591-0.463-1.046-1.049-1.379-1.757c-0.334-0.708-0.491-1.552-0.491-2.53c0-1.07,0.182-1.959,0.566-2.653
			c0.376-0.697,0.869-1.253,1.469-1.666c0.603-0.415,1.289-0.729,2.056-0.933c0.773-0.211,1.549-0.373,2.335-0.496
			c0.785-0.124,1.554-0.219,2.313-0.294c0.757-0.074,1.434-0.186,2.021-0.33c0.584-0.144,1.053-0.358,1.394-0.641
			c0.343-0.28,0.504-0.69,0.478-1.227c0-0.537-0.092-0.975-0.276-1.317c-0.179-0.343-0.425-0.604-0.729-0.788
			c-0.301-0.186-0.66-0.307-1.064-0.368c-0.4-0.061-0.834-0.089-1.3-0.089c-1.025,0-1.828,0.217-2.418,0.659
			c-0.58,0.437-0.93,1.172-1.022,2.197h-5.202c0.075-1.196,0.38-2.204,0.917-3.023c0.538-0.819,1.217-1.473,2.047-1.96
			c0.833-0.486,1.758-0.836,2.788-1.044c1.025-0.207,2.07-0.308,3.151-0.308c0.951,0,1.917,0.064,2.889,0.202
			c0.97,0.129,1.859,0.396,2.654,0.781c0.808,0.395,1.462,0.942,1.97,1.654c0.51,0.706,0.769,1.621,0.769,2.746v9.851
			c0,0.855,0.045,1.676,0.144,2.457c0.095,0.779,0.267,1.365,0.517,1.76h-5.247c-0.096-0.295-0.169-0.596-0.24-0.9
			c-0.059-0.305-0.099-0.617-0.128-0.936c-0.83,0.855-1.812,1.457-2.938,1.793C34.816,35.633,33.661,35.803,32.486,35.803
			 M34.406,32.361c1.035,0,1.839-0.174,2.406-0.517c0.56-0.337,0.986-0.748,1.259-1.223c0.267-0.478,0.434-0.958,0.496-1.451
			c0.061-0.486,0.092-0.873,0.092-1.168l-0.035-1.944c-0.223,0.195-0.496,0.352-0.813,0.459c-0.313,0.111-0.673,0.202-1.064,0.276
			c-0.395,0.07-0.795,0.131-1.22,0.182c-0.415,0.05-0.828,0.108-1.251,0.185c-0.415,0.072-0.808,0.174-1.173,0.292
			c-0.373,0.122-0.694,0.285-0.98,0.497c-0.279,0.203-0.506,0.467-0.677,0.785c-0.168,0.316-0.259,0.719-0.259,1.21
			c0,0.486,0.091,0.883,0.259,1.187c0.179,0.309,0.41,0.551,0.699,0.733c0.301,0.188,0.644,0.312,1.045,0.386
			C33.58,32.325,33.982,32.361,34.406,32.361"/>
		<path fill="#85BD47" d="M47.856,16.388h4.945v2.417h0.075c0.635-1.026,1.436-1.768,2.416-2.233
			c0.976-0.463,2.048-0.694,3.224-0.694c1.487,0,2.771,0.277,3.843,0.839c1.074,0.563,1.969,1.309,2.675,2.236
			c0.71,0.932,1.235,2.008,1.572,3.241c0.347,1.232,0.518,2.522,0.518,3.864c0,1.275-0.171,2.492-0.518,3.666
			c-0.337,1.173-0.858,2.21-1.556,3.112c-0.694,0.907-1.56,1.624-2.596,2.161c-1.04,0.537-2.249,0.805-3.644,0.805
			c-1.176,0-2.255-0.236-3.244-0.715c-0.987-0.473-1.804-1.178-2.436-2.105h-0.075v8.977h-5.2V16.388z M57.437,31.92
			c0.853,0,1.571-0.168,2.149-0.512c0.578-0.342,1.039-0.786,1.395-1.338c0.36-0.547,0.608-1.186,0.758-1.904
			c0.147-0.721,0.222-1.472,0.222-2.254c0-0.755-0.088-1.5-0.245-2.233c-0.156-0.732-0.42-1.386-0.779-1.959
			c-0.374-0.575-0.847-1.039-1.425-1.394c-0.574-0.353-1.28-0.529-2.112-0.529c-0.858,0-1.574,0.176-2.156,0.529
			c-0.573,0.355-1.039,0.815-1.399,1.375c-0.349,0.561-0.606,1.214-0.755,1.961c-0.144,0.742-0.213,1.495-0.213,2.25
			c0,0.783,0.078,1.534,0.239,2.254c0.156,0.719,0.416,1.357,0.768,1.904c0.359,0.552,0.821,0.996,1.398,1.338
			C55.859,31.752,56.573,31.92,57.437,31.92"/>
		<polygon fill="#85BD47" points="74.853,20.311 68.624,20.311 68.624,16.388 86.245,16.388 86.245,20.311 80.017,20.311 
			80.017,35.33 74.853,35.33 		"/>
		<path fill="#85BD47" d="M94.289,35.803c-0.906,0-1.754-0.109-2.538-0.33c-0.779-0.219-1.469-0.561-2.061-1.025
			c-0.576-0.463-1.042-1.049-1.374-1.757c-0.329-0.708-0.496-1.552-0.496-2.53c0-1.07,0.191-1.959,0.571-2.653
			c0.379-0.697,0.871-1.253,1.469-1.666c0.599-0.415,1.287-0.729,2.06-0.933c0.772-0.211,1.547-0.373,2.332-0.496
			c0.781-0.124,1.551-0.219,2.316-0.294c0.754-0.074,1.432-0.186,2.019-0.33c0.586-0.144,1.051-0.358,1.394-0.641
			c0.343-0.28,0.501-0.69,0.479-1.227c0-0.537-0.088-0.975-0.271-1.317c-0.186-0.343-0.43-0.604-0.735-0.788
			c-0.307-0.186-0.661-0.307-1.063-0.368c-0.399-0.061-0.84-0.089-1.303-0.089c-1.022,0-1.828,0.217-2.415,0.659
			c-0.59,0.437-0.929,1.172-1.027,2.197h-5.201c0.072-1.196,0.379-2.204,0.913-3.023c0.54-0.819,1.22-1.473,2.05-1.96
			c0.833-0.486,1.765-0.836,2.791-1.044c1.022-0.207,2.071-0.308,3.149-0.308c0.948,0,1.91,0.064,2.89,0.202
			c0.968,0.129,1.861,0.396,2.661,0.781c0.8,0.395,1.452,0.942,1.965,1.654c0.503,0.706,0.763,1.621,0.763,2.746v9.851
			c0,0.855,0.046,1.676,0.145,2.457c0.096,0.779,0.269,1.365,0.513,1.76h-5.243c-0.1-0.295-0.174-0.596-0.236-0.9
			c-0.057-0.305-0.099-0.617-0.125-0.936c-0.836,0.855-1.816,1.457-2.937,1.793C96.612,35.633,95.465,35.803,94.289,35.803
			 M96.204,32.361c1.037,0,1.84-0.174,2.406-0.517c0.565-0.337,0.988-0.748,1.258-1.223c0.27-0.478,0.438-0.958,0.497-1.451
			c0.061-0.486,0.094-0.873,0.094-1.168l-0.037-1.944c-0.222,0.195-0.491,0.352-0.808,0.459c-0.318,0.111-0.677,0.202-1.069,0.276
			c-0.393,0.07-0.8,0.131-1.218,0.182c-0.412,0.05-0.83,0.108-1.246,0.185c-0.417,0.072-0.81,0.174-1.18,0.292
			c-0.364,0.122-0.689,0.285-0.971,0.497c-0.284,0.203-0.51,0.467-0.689,0.785c-0.168,0.316-0.251,0.719-0.251,1.21
			c0,0.486,0.083,0.883,0.26,1.187c0.17,0.309,0.403,0.551,0.703,0.733c0.292,0.188,0.634,0.312,1.031,0.386
			C95.38,32.325,95.788,32.361,96.204,32.361"/>
	</g>
	<g>
		<path fill="#4271B5" d="M119.649,32.216h2.058c0.244-0.657,0.488-1.335,0.725-2.026c0.239-0.695,0.465-1.441,0.678-2.252
			c0.216-0.808,0.408-1.695,0.584-2.664c0.174-0.968,0.333-2.06,0.471-3.279c0.138-1.214,0.25-2.578,0.333-4.084
			c0.086-1.505,0.147-3.203,0.177-5.096h15.972v19.401h1.805v9.079h-4.243V36.27h-14.313v5.025h-4.245V32.216z M135.749,16.851
			h-6.765c-0.013,0.426-0.025,0.967-0.041,1.627c-0.018,0.661-0.052,1.396-0.105,2.208c-0.053,0.814-0.129,1.692-0.23,2.635
			c-0.101,0.94-0.235,1.909-0.404,2.902c-0.172,0.995-0.388,2-0.648,3.015c-0.263,1.018-0.577,2.008-0.949,2.978h9.144V16.851z"/>
		<path fill="#4271B5" d="M144.284,24.54c0-1.755,0.233-3.383,0.699-4.883c0.47-1.5,1.171-2.798,2.108-3.9
			c0.938-1.101,2.111-1.965,3.527-2.593c1.413-0.628,3.062-0.94,4.946-0.94c1.732,0,3.296,0.312,4.689,0.94
			c1.395,0.628,2.578,1.492,3.551,2.593c0.974,1.102,1.722,2.4,2.241,3.9c0.521,1.5,0.781,3.127,0.781,4.883
			c0,1.744-0.26,3.368-0.781,4.876c-0.52,1.504-1.268,2.809-2.241,3.907c-0.973,1.103-2.156,1.964-3.551,2.595
			c-1.394,0.627-2.957,0.938-4.689,0.938c-1.885,0-3.533-0.311-4.946-0.938c-1.416-0.631-2.59-1.492-3.527-2.595
			c-0.938-1.099-1.639-2.403-2.108-3.907C144.518,27.908,144.284,26.284,144.284,24.54z M155.565,32.615
			c0.999,0,1.893-0.203,2.68-0.61c0.787-0.401,1.453-0.962,2.003-1.681c0.545-0.717,0.964-1.569,1.252-2.552
			c0.285-0.985,0.432-2.062,0.432-3.232c0-1.169-0.146-2.246-0.432-3.231c-0.288-0.983-0.707-1.833-1.252-2.552
			c-0.55-0.718-1.216-1.277-2.003-1.682c-0.787-0.406-1.681-0.605-2.68-0.605c-1.002,0-1.895,0.199-2.682,0.605
			c-0.79,0.405-1.455,0.964-2.004,1.682c-0.547,0.72-0.966,1.569-1.258,2.552c-0.294,0.985-0.438,2.062-0.438,3.231
			c0,1.17,0.145,2.247,0.438,3.232c0.292,0.982,0.711,1.835,1.258,2.552c0.549,0.719,1.214,1.279,2.004,1.681
			C153.671,32.412,154.563,32.615,155.565,32.615z"/>
		<path fill="#4271B5" d="M170.946,12.814h16.274v4.036h-11.379v5.2h6.145c0.352,0,0.801,0.01,1.355,0.032
			c0.554,0.022,1.141,0.099,1.762,0.232c0.624,0.134,1.251,0.342,1.884,0.63c0.632,0.288,1.205,0.694,1.714,1.221
			c0.512,0.527,0.928,1.196,1.248,2.01c0.318,0.814,0.479,1.814,0.479,3.006c0,1.182-0.16,2.177-0.479,2.986
			c-0.32,0.81-0.725,1.475-1.223,2.002c-0.494,0.525-1.048,0.93-1.649,1.213c-0.607,0.281-1.197,0.49-1.766,0.621
			c-0.567,0.133-1.088,0.211-1.562,0.23c-0.473,0.023-0.821,0.035-1.046,0.035h-11.757V12.814z M175.842,32.216h5.616
			c0.447,0,0.908-0.031,1.383-0.099c0.47-0.062,0.908-0.199,1.308-0.41c0.398-0.214,0.725-0.531,0.98-0.95
			c0.256-0.422,0.383-0.981,0.383-1.685c0-0.733-0.124-1.312-0.374-1.732c-0.25-0.419-0.579-0.735-0.981-0.949
			c-0.404-0.212-0.86-0.346-1.363-0.397c-0.506-0.054-1.015-0.08-1.526-0.08h-5.425V32.216z"/>
		<path fill="#4271B5" d="M194.543,12.814h10.658c1.245,0,2.325,0.168,3.247,0.51c0.919,0.34,1.681,0.834,2.29,1.482
			c0.604,0.649,1.058,1.437,1.355,2.363s0.446,1.978,0.446,3.159c0,1.094-0.174,2.101-0.525,3.023
			c-0.352,0.921-0.86,1.712-1.526,2.377c-0.663,0.665-1.473,1.183-2.431,1.557c-0.959,0.372-2.044,0.557-3.258,0.557h-5.358v8.427
			h-4.898V12.814z M199.441,23.792h4.642c1.107,0,1.976-0.271,2.611-0.818c0.632-0.541,0.947-1.422,0.947-2.645
			c0-0.617-0.082-1.144-0.248-1.581s-0.396-0.794-0.699-1.077c-0.304-0.281-0.681-0.487-1.119-0.621
			c-0.438-0.135-0.938-0.2-1.492-0.2h-4.642V23.792z"/>
		<path fill="#4271B5" d="M222.702,12.814h5.599l8.301,23.455h-5.33l-1.498-4.836h-8.663l-1.63,4.836h-5.169L222.702,12.814z
			 M222.418,27.381h5.981l-2.921-9.285h-0.062L222.418,27.381z"/>
	</g>
</g>
</svg>
